<svg aria-hidden="true" style="position:absolute;width:0;height:0;overflow:hidden" xmlns="http://www.w3.org/2000/svg"><defs><symbol id="right-arrow" viewBox="0 0 32 32"><path fill="none" stroke="#0016dc" style="stroke:var(--color1, #0016dc)" stroke-linejoin="round" stroke-linecap="round" stroke-width="1.6" d="M4 16h24m0 0L16.666 27.334M28 16 16.666 4.667"/></symbol><symbol id="left-arrow" viewBox="0 0 32 32"><path fill="none" stroke="#0016dc" style="stroke:var(--color1, #0016dc)" stroke-linejoin="round" stroke-linecap="round" stroke-width="1.6" d="M28 16H4m0 0 11.334 11.334M4 16 15.334 4.667"/></symbol><symbol id="link-arrow" viewBox="0 0 32 32"><path fill="none" stroke="#0016dc" style="stroke:var(--color1, #0016dc)" stroke-linejoin="round" stroke-linecap="round" stroke-width="1.6" d="M8 25.334 25.334 8m0 0v16.64m0-16.64H8.694"/></symbol><symbol id="email" viewBox="0 0 32 32"><path fill="none" stroke="#fff" style="stroke:var(--color2, #fff)" stroke-linecap="round" stroke-width="2" d="M4 10.749c0-.465.242-.896.638-1.138l11.363-6.944 11.363 6.944c.396.242.638.673.638 1.138v13.253c0 .736-.597 1.333-1.333 1.333H5.333A1.333 1.333 0 0 1 4 24.002v0-13.253z"/><path fill="none" stroke="#fff" style="stroke:var(--color2, #fff)" stroke-linecap="round" stroke-width="2" d="m4 11.334 12.001 7.334 12.001-7.334"/></symbol><symbol id="phone" viewBox="0 0 32 32"><path fill="#fff" style="fill:var(--color2, #fff)" d="m27.702 20.04-5.906-2.647a1.748 1.748 0 0 0-1.667.157l.006-.004a.655.655 0 0 0-.071.053l.001-.001-3.087 2.625a.237.237 0 0 1-.212.007l.001.001c-1.983-.958-4.038-3-5.001-4.957a.242.242 0 0 1 .001-.211l-.001.001 2.634-3.125c.211-.286.337-.644.337-1.033 0-.253-.053-.493-.15-.709l.004.011-2.626-5.898a1.753 1.753 0 0 0-1.828-1.046l.009-.001C6.8 3.715 4.248 6.552 4.248 9.986v.016-.001c0 9.789 7.964 17.752 17.752 17.752h.012a6.784 6.784 0 0 0 6.721-5.862l.004-.035a1.752 1.752 0 0 0-1.026-1.812l-.011-.004zm-5.7 6.213c-8.961 0-16.252-7.291-16.252-16.252v-.017a5.281 5.281 0 0 1 4.557-5.231l.027-.003h.029a.25.25 0 0 1 .229.162l.001.002 2.637 5.89a.252.252 0 0 1 0 .21l.001-.002-2.639 3.133a.622.622 0 0 0-.052.069l-.001.002a1.743 1.743 0 0 0-.109 1.726l-.005-.01c1.109 2.27 3.396 4.541 5.692 5.651a1.738 1.738 0 0 0 1.727-.13l-.006.004a.898.898 0 0 0 .072-.053l-.002.001 3.085-2.625a.238.238 0 0 1 .201-.013l-.002-.001 5.908 2.646a.25.25 0 0 1 .151.23l-.001.021v-.001c-.353 2.604-2.562 4.59-5.235 4.59h-.014.001z"/></symbol><symbol id="instagram" viewBox="0 0 32 32"><path fill="none" stroke="#fff" style="stroke:var(--color2, #fff)" stroke-linejoin="round" stroke-linecap="round" stroke-width="2" d="M16.005 21.34a5.336 5.336 0 0 0 0-10.67v0a5.336 5.336 0 0 0 0 10.67v0z"/><path fill="none" stroke="#fff" style="stroke:var(--color2, #fff)" stroke-width="2" d="M4.001 21.34V10.67a6.67 6.67 0 0 1 6.669-6.669h10.67a6.67 6.67 0 0 1 6.669 6.669v10.67a6.67 6.67 0 0 1-6.669 6.669H10.67a6.67 6.67 0 0 1-6.669-6.669z"/><path fill="none" stroke="#fff" style="stroke:var(--color2, #fff)" stroke-linejoin="round" stroke-linecap="round" stroke-width="2" d="m23.34 8.682.013-.015"/></symbol><symbol id="facebook" viewBox="0 0 32 32"><path fill="none" stroke="#fff" style="stroke:var(--color2, #fff)" stroke-linejoin="round" stroke-linecap="round" stroke-width="2" d="M22.673 2.667h-4.001a6.67 6.67 0 0 0-6.669 6.669v4.001H8.002v5.335h4.001v10.67h5.335v-10.67h4.001l1.334-5.335h-5.335V9.336c0-.737.597-1.334 1.334-1.334v0h4.001V2.667z"/></symbol><symbol id="twitter" viewBox="0 0 32 32"><path fill="none" stroke="#fff" style="stroke:var(--color2, #fff)" stroke-linejoin="round" stroke-linecap="round" stroke-width="2" d="M30.676 4.014s-2.691 1.59-4.188 2.041a5.975 5.975 0 0 0-10.482 4.005v-.004 1.334A14.198 14.198 0 0 1 4.032 5.393l-.03-.044s-5.335 12.003 6.669 17.338a15.39 15.39 0 0 1-9.367 2.667l.031.001c12.003 6.669 26.674 0 26.674-15.338 0-.371-.037-.742-.107-1.107 1.36-1.342 2.774-4.895 2.774-4.895z"/></symbol><symbol id="linkedin" viewBox="0 0 32 32"><path fill="none" stroke="#fff" style="stroke:var(--color2, #fff)" stroke-linejoin="round" stroke-linecap="round" stroke-width="2" d="M9.336 22.673v-9.336m18.672-2.667v10.67a6.67 6.67 0 0 1-6.669 6.669v0h-10.67A6.67 6.67 0 0 1 4 21.34v0-10.67a6.67 6.67 0 0 1 6.669-6.669v0h10.67a6.67 6.67 0 0 1 6.669 6.669v0z"/><path fill="none" stroke="#fff" style="stroke:var(--color2, #fff)" stroke-linejoin="round" stroke-linecap="round" stroke-width="2" d="M14.671 22.673v-4.335m0 .001v-5.001m0 5.001c0-5.001 8.002-5.001 8.002 0v4.335M9.336 9.349l.013-.015"/></symbol><symbol id="github" viewBox="0 0 32 32"><path fill="none" stroke="#fff" style="stroke:var(--color2, #fff)" stroke-linejoin="round" stroke-linecap="round" stroke-width="2" d="M16.005 29.342c7.366 0 13.337-5.971 13.337-13.337S23.371 2.668 16.005 2.668 2.668 8.639 2.668 16.005s5.971 13.337 13.337 13.337z"/><path fill="none" stroke="#fff" style="stroke:var(--color2, #fff)" stroke-linejoin="round" stroke-linecap="round" stroke-width="2" d="M19.116 25.341v-2.485a2.859 2.859 0 0 0-.168-1.218 2.915 2.915 0 0 0-.667-1.042h0c2.791-.303 5.726-1.334 5.726-6.06a4.629 4.629 0 0 0-1.334-3.247l.001.001c.18-.456.285-.983.285-1.536 0-.626-.134-1.221-.376-1.756l.011.027s-1.05-.303-3.477 1.28c-.933-.256-2.005-.403-3.112-.403s-2.178.147-3.197.423l.085-.02c-2.427-1.583-3.477-1.28-3.477-1.28a4.224 4.224 0 0 0-.365 1.729c0 .552.104 1.08.295 1.565l-.01-.029a4.628 4.628 0 0 0-1.334 3.257v.015-.001c0 4.693 2.934 5.722 5.726 6.06a2.915 2.915 0 0 0-.655 1.011l-.007.02a2.807 2.807 0 0 0-.173 1.212l-.001-.009v2.485"/><path fill="none" stroke="#fff" style="stroke:var(--color2, #fff)" stroke-linejoin="round" stroke-linecap="round" stroke-width="2" d="M12.893 23.61c-2.667.84-4.891 0-6.224-2.598"/></symbol><symbol id="testing" viewBox="0 0 36 32"><path fill="none" stroke="#fff" style="stroke:var(--color2, #fff)" stroke-width="1.488" d="M33.517.744H2.203c-.804 0-1.456.651-1.458 1.455v21.854c0 .804.654 1.455 1.461 1.455H33.52c.804 0 1.456-.651 1.458-1.455V2.199c0-.804-.654-1.455-1.461-1.455zM.744 20.797h34.233"/><path fill="none" stroke="#fff" style="stroke:var(--color2, #fff)" stroke-width="1.488" d="M11.389 31.256a4.848 4.848 0 0 0 2.353-2.373l.012-.03a4.71 4.71 0 0 0 .414-1.948c0-.504-.078-.989-.222-1.445l.009.034m11.021 5.762a4.842 4.842 0 0 1-2.355-2.372l-.012-.03a4.712 4.712 0 0 1-.414-1.946c0-.505.078-.991.223-1.448l-.009.034"/><path fill="none" stroke="#fff" style="stroke:var(--color2, #fff)" stroke-linecap="round" stroke-width="1.488" d="M7.375 31.256h20.972"/><path fill="none" stroke="#fff" style="stroke:var(--color2, #fff)" stroke-width="1.488" d="m6.869 6.766 2.097 1.462 2.596-3.638m-4.996 9.235 2.09 1.455 2.596-3.637m4.15-4.661h15.055m-15.055 7.333h15.055"/></symbol><symbol id="hosting" viewBox="0 0 34 32"><path fill="#fff" style="fill:var(--color2, #fff)" d="M31.251 22h-1.049V7.231H3.359v14.768H2.31V6.179h28.941v15.82z"/><path fill="#fff" style="fill:var(--color2, #fff)" d="M33.562 24.531h-4.65v-1.052h3.601V4.894H1.048v18.585H4.65v1.052H0V3.842h33.562V24.53z"/><path fill="#fff" style="fill:var(--color2, #fff)" d="M33.562 4.894H0V0h33.562v4.894zM1.049 3.842h31.464v-2.79H1.048v2.79z"/><path fill="#fff" style="fill:var(--color2, #fff)" d="M2.01 1.893h1.234v1.052H2.011V1.894zm2.136 0h1.235v1.052H4.146V1.894zm2.136 0h1.235v1.052H6.282V1.894zm10.499 30.108c-6.477 0-11.747-5.331-11.747-11.884S10.303 8.233 16.781 8.233c6.477 0 11.747 5.332 11.747 11.884s-5.27 11.884-11.747 11.884zm0-22.716c-5.899 0-10.698 4.859-10.698 10.832s4.799 10.832 10.698 10.832 10.698-4.859 10.698-10.832c0-5.973-4.799-10.832-10.698-10.832z"/><path fill="#fff" style="fill:var(--color2, #fff)" d="M16.781 31.869c-6.405 0-11.616-5.272-11.616-11.753S10.376 8.364 16.781 8.364c6.406 0 11.617 5.272 11.617 11.752 0 6.481-5.211 11.753-11.617 11.753zm0-22.453c-5.826 0-10.567 4.8-10.567 10.7s4.74 10.701 10.567 10.701 10.568-4.8 10.568-10.701-4.741-10.7-10.568-10.7z"/><path fill="#fff" style="fill:var(--color2, #fff)" d="M16.781 31.869c-3.892 0-6.941-5.163-6.941-11.753 0-6.48 3.114-11.752 6.941-11.752 3.891 0 6.938 5.162 6.938 11.752 0 6.591-3.047 11.753-6.938 11.753zm0-22.453c-3.249 0-5.893 4.8-5.893 10.7s2.644 10.701 5.893 10.701c3.247 0 5.889-4.8 5.889-10.701s-2.642-10.7-5.889-10.7z"/><path fill="#fff" style="fill:var(--color2, #fff)" d="M16.781 31.869h-.524V8.364h.524c6.406 0 11.617 5.272 11.617 11.752s-5.211 11.753-11.617 11.753zm.524-22.439v21.375c5.584-.277 10.044-4.966 10.044-10.688S22.89 9.707 17.305 9.429z"/><path fill="#fff" style="fill:var(--color2, #fff)" d="M27.514 24.599H6.045l-.127-.342a11.628 11.628 0 0 1-.753-4.14v-.001c0-1.403.254-2.797.755-4.142l.127-.342h21.468l.127.342c.477 1.23.754 2.653.756 4.141v.001c0 1.404-.254 2.797-.756 4.142l-.128.341zM6.78 23.548h20c.359-1.023.567-2.203.568-3.431v-.001c0-1.159-.191-2.312-.568-3.432H6.781a10.517 10.517 0 0 0-.567 3.432v.001c0 1.158.19 2.311.566 3.432z"/></symbol><symbol id="design" viewBox="0 0 32 32"><path fill="#fff" style="fill:var(--color2, #fff)" d="M7.111 30.224a1.778 1.778 0 1 0 0-3.556 1.778 1.778 0 1 0 0 3.556zm0 1.777a3.556 3.556 0 1 0 0-7.112 3.556 3.556 0 1 0 0 7.112zM3.556 14.223h.037a1.778 1.778 0 1 0 0-3.556h-.039.002a1.779 1.779 0 0 0-.002 3.556h.002zm0 1.778a3.556 3.556 0 1 0 0-7.112 3.556 3.556 0 0 0-.001 7.112zm24.89-1.778h.037a1.778 1.778 0 1 0 0-3.556h-.039.002a1.779 1.779 0 0 0-.002 3.556h.002zm0 1.778a3.556 3.556 0 1 0 0-7.112 3.556 3.556 0 1 0 0 7.112zM24.89 30.224a1.778 1.778 0 1 0 0-3.556 1.778 1.778 0 1 0 0 3.556zm0 1.777a3.556 3.556 0 1 0 0-7.112 3.556 3.556 0 1 0 0 7.112zM16.001 5.334h.026a1.778 1.778 0 1 0 0-3.556h-.028H16a1.779 1.779 0 0 0-.002 3.556H16zm0 1.777a3.556 3.556 0 1 0 0-7.112 3.556 3.556 0 1 0 0 7.112z"/><path fill="#fff" style="fill:var(--color2, #fff)" d="m25.706 11.581-8-5.715 1.033-1.447 8 5.715-1.033 1.447zM14.031 6.055l-7.736 5.526-1.033-1.447 7.737-5.526 1.033 1.447zm-9.015 8.864 2.37 10.667-1.736.386-2.37-10.667 1.736-.386zm19.599 10.667 2.271-10.223 1.736.386-2.272 10.223-1.736-.386zM9.778 27.557h12.445v1.778H9.778v-1.778z"/></symbol><symbol id="development" viewBox="0 0 32 32"><path fill="#fff" style="fill:var(--color2, #fff)" d="M4 20.001v2h4.586L2 28.587l1.414 1.414L10 23.415v4.586h2v-8H4zM30.001 10l-6-6-1.414 1.414L27.173 10l-4.586 4.586L24.001 16l6-6zm-16.082 7.484 4.15-15.483 1.932.518-4.15 15.484-1.932-.518zM4 10l6-6 1.414 1.414L6.828 10l4.586 4.586L10 16l-6-6z"/></symbol><symbol id="cross" viewBox="0 0 32 32"><path fill="#fff" style="fill:var(--color2, #fff)" d="M25.341 8.549 23.46 6.668l-7.456 7.455-7.456-7.455-1.881 1.881 7.455 7.456-7.455 7.456 1.881 1.881 7.456-7.456 7.456 7.456 1.881-1.881-7.456-7.456 7.456-7.456z"/></symbol><symbol id="burger" viewBox="0 0 42 32"><path fill="#fff" style="fill:var(--color2, #fff)" d="M0 0h42.003v5.333H0V0zm0 13.335h42.003v5.334H0v-5.334zM0 26.67h42.003v5.333H0V26.67z"/></symbol><symbol id="logo-sm" viewBox="0 0 65 32"><path fill="#747aa4" style="fill:var(--color3, #747aa4)" d="M24.233 31.767 35.142.97h2.903L27.136 31.767h-2.903z"/><path fill="#0016dc" style="fill:var(--color1, #0016dc)" d="m22.663 22.746-10.593-6.3 10.593-6.298-.47-2.723L.141 20.878l.47 2.489 9.261-5.521 12.32 7.543.471-2.643zm19.385-12.678 10.595 6.301-10.595 6.298.471 2.721L64.57 11.935l-.47-2.487-9.261 5.52-12.32-7.543-.471 2.644z"/></symbol><symbol id="logo-md" viewBox="0 0 30 32"><path fill="#747aa4" style="fill:var(--color3, #747aa4)" d="m13.428 21.833 4.445-12.549h1.183l-4.445 12.549h-1.183z"/><path fill="#0016dc" style="fill:var(--color1, #0016dc)" d="M12.789 18.157 8.473 15.59l4.316-2.566-.191-1.109-8.985 5.482.191 1.014 3.774-2.25 5.02 3.074.192-1.077zm7.898-5.166 4.317 2.567-4.317 2.567.192 1.109 8.985-5.482-.191-1.013-3.774 2.249-5.02-3.074-.192 1.077z"/><path fill="none" stroke="#747aa4" style="stroke:var(--color3, #747aa4)" stroke-width=".633" d="M26.475 27.41a15.947 15.947 0 0 1-7.541 3.722l-.101.016c-2.846.507-5.756.222-8.474-.792-2.762-1.06-5.066-2.793-6.785-5.003l-.026-.035a15.514 15.514 0 0 1-3.159-7.754l-.007-.072C.095 14.64.574 11.757 1.821 9.19c1.283-2.623 3.191-4.769 5.536-6.301l.06-.037A15.522 15.522 0 0 1 15.553.349h.018c2.878-.063 5.756.634 8.25 2.06"/></symbol><symbol id="logo-lg" viewBox="0 0 69 32"><path fill="#0016dc" style="fill:var(--color1, #0016dc)" d="M41.84 16.006v-5.45l.479 1.268-6.171-10.013h2.174l5.179 8.428h-1.183l5.211-8.459h2.015l-6.139 10.012.448-1.268v5.45h-2.015v.031zm9.56 0V1.811h2.046v14.195H51.4zm9.784 0v-5.45l.479 1.268-6.171-10.013h2.174l5.179 8.46h-1.183l5.211-8.46h2.014l-6.139 10.012.448-1.267v5.45h-2.014zM43.663 29.693c-.576 0-1.151-.095-1.695-.254s-.96-.348-1.247-.57l.543-1.014c.32.19.672.38 1.119.507s.895.222 1.375.222c.607 0 1.023-.095 1.279-.254s.416-.412.416-.697c0-.222-.096-.38-.256-.507s-.384-.222-.64-.284a5.501 5.501 0 0 0-.835-.156l-.027-.003-.959-.19a7.363 7.363 0 0 1-.895-.317 1.588 1.588 0 0 1-.636-.564l-.004-.006c-.16-.254-.255-.57-.255-.983s.128-.792.351-1.108a2.25 2.25 0 0 1 1.008-.724l.016-.005c.447-.19.991-.254 1.599-.254.479 0 .927.063 1.407.158s.863.254 1.183.475l-.543 1.014c-.32-.222-.671-.348-.991-.443a3.9 3.9 0 0 0-1.001-.127h-.056.003c-.576 0-.991.095-1.247.284-.287.191-.415.412-.415.698 0 .254.095.412.255.57.16.127.384.222.64.286s.575.127.895.19c.32.032.64.095.96.19.319.063.607.158.863.317.255.127.48.317.639.57s.255.571.255.951c0 .412-.127.792-.383 1.109s-.607.57-1.055.729c-.48.095-1.055.19-1.663.19zm7.737 0a3.907 3.907 0 0 1-1.918-.475c-.544-.317-.991-.729-1.311-1.268s-.48-1.172-.48-1.869.16-1.331.48-1.87c.319-.538.767-.951 1.311-1.267s1.183-.475 1.918-.475c.703 0 1.343.158 1.886.475.55.299.995.73 1.302 1.251l.009.016c.32.539.48 1.141.48 1.87 0 .697-.16 1.33-.48 1.869s-.767.983-1.311 1.268a3.785 3.785 0 0 1-1.886.475zm0-1.109c.447 0 .863-.095 1.215-.317.351-.19.64-.507.863-.856.192-.38.32-.824.32-1.33s-.097-.951-.32-1.299a1.887 1.887 0 0 0-.852-.851l-.011-.005a2.53 2.53 0 0 0-1.214-.316H51.4c-.448 0-.863.095-1.215.316-.352.19-.64.507-.863.856s-.32.792-.32 1.299.096.951.32 1.33c.223.38.511.666.863.856.351.222.735.317 1.215.317zm5.659 1.046v-7.699c0-.697.191-1.236.607-1.647s.991-.634 1.758-.634c.288 0 .543.032.799.095.256.064.479.159.671.317l-.383.983a1.993 1.993 0 0 0-.435-.249l-.014-.005a1.478 1.478 0 0 0-.526-.095h-.018.001c-.383 0-.671.095-.863.317-.192.19-.287.507-.287.919v.951l.032.57V29.6h-1.343v.031zm-1.215-6.02v-1.046h4.54v1.046h-4.541zm8.185 6.083c-.703 0-1.279-.19-1.662-.57s-.575-.919-.575-1.647v-6.464h1.279v6.431c0 .38.096.666.287.887.192.19.48.317.831.317.416 0 .735-.127.991-.348l.415.919a2.494 2.494 0 0 1-.703.38 3.804 3.804 0 0 1-.863.095zm-3.453-6.083v-1.046h4.541v1.046h-4.541z"/><path fill="#747aa4" style="fill:var(--color3, #747aa4)" d="m13.428 21.832 4.445-12.547h1.183l-4.444 12.547h-1.183z"/><path fill="#0016dc" style="fill:var(--color1, #0016dc)" d="M12.789 18.157 8.473 15.59l4.316-2.566-.191-1.109-8.984 5.481.191 1.014 3.773-2.25 5.019 3.073.192-1.077zm7.898-5.165 4.316 2.567-4.316 2.567.192 1.109 8.984-5.481-.191-1.013-3.773 2.249-5.019-3.073-.192 1.077z"/><path fill="none" stroke="#747aa4" style="stroke:var(--color3, #747aa4)" stroke-width=".633" d="M26.473 27.408a15.953 15.953 0 0 1-7.54 3.722l-.101.016c-2.846.507-5.755.222-8.473-.792-2.762-1.06-5.065-2.793-6.784-5.003l-.026-.035A15.507 15.507 0 0 1 .39 17.562l-.007-.072c-.287-2.852.192-5.735 1.439-8.301 1.283-2.623 3.191-4.768 5.536-6.3l.06-.037A15.521 15.521 0 0 1 15.553.349h.018c2.878-.063 5.755.634 8.249 2.059"/></symbol></defs></svg>