<svg xmlns="http://www.w3.org/2000/svg" data-name="Layer 1" viewBox="6 16.83 89.002 58.17" height="160.554" width="245.654" data-fill-palette-color="accent"><path d="m94.12 43.79-9.48-9.48a3 3 0 0 0-4.25 4.24l4.37 4.36H64.17V26.35a9.53 9.53 0 0 0-9.52-9.52H15.52A9.53 9.53 0 0 0 6 26.35V72a3 3 0 0 0 6 0V26.35a3.53 3.53 0 0 1 3.52-3.52h39.13a3.53 3.53 0 0 1 3.52 3.52v16.56h-7v-3.52a9.53 9.53 0 0 0-9.52-9.52h-13A9.53 9.53 0 0 0 19 39.39v26.09A9.53 9.53 0 0 0 28.56 75h26.09a9.53 9.53 0 0 0 9.52-9.52V48.91h20.59l-4.37 4.37a3 3 0 0 0 4.25 4.24L94.12 48a3 3 0 0 0 0-4.25ZM58.17 65.48A3.53 3.53 0 0 1 54.65 69H28.56A3.53 3.53 0 0 1 25 65.48V39.39a3.53 3.53 0 0 1 3.52-3.52h13.09a3.53 3.53 0 0 1 3.52 3.52v3.52H39.3a7.22 7.22 0 0 0-7.21 7.21v4.63A7.22 7.22 0 0 0 39.3 62h4.62a7.23 7.23 0 0 0 7.21-7.21v-5.88h7Zm-13-16.57v5.84A1.21 1.21 0 0 1 43.92 56H39.3a1.21 1.21 0 0 1-1.21-1.21v-4.67a1.21 1.21 0 0 1 1.21-1.21Z" fill="#0718c4" data-fill-palette-color="accent"/></svg>